<?xml version="1.0" standalone="no"?>
<!DOCTYPE svg PUBLIC "-//W3C//DTD SVG 20010904//EN"
 "http://www.w3.org/TR/2001/REC-SVG-20010904/DTD/svg10.dtd">
<svg version="1.0" xmlns="http://www.w3.org/2000/svg"
 width="416.000000pt" height="416.000000pt" viewBox="0 0 416.000000 416.000000"
 preserveAspectRatio="xMidYMid meet">

<g transform="translate(0.000000,416.000000) scale(0.100000,-0.100000)"
fill="#000000" stroke="none">
<path d="M1845 4099 c-363 -38 -736 -184 -1033 -406 -97 -73 -276 -245 -355
-343 -487 -602 -582 -1423 -247 -2119 166 -343 433 -638 762 -843 254 -158
578 -267 887 -298 508 -51 1033 97 1449 407 97 73 276 245 355 343 487 602
582 1423 247 2119 -166 343 -433 638 -762 843 -376 233 -858 343 -1303 297z
m1045 -1184 l0 -245 -457 0 -458 0 -135 235 c-74 130 -136 240 -138 245 -2 7
211 10 592 10 l596 0 0 -245z m-2 -837 l-4 -483 -27 -80 c-37 -110 -90 -197
-168 -276 -297 -300 -877 -317 -1196 -34 -29 25 -74 79 -102 120 -94 142 -121
253 -121 511 l0 174 258 0 257 0 0 -158 c1 -186 12 -228 80 -291 73 -67 192
-89 306 -55 65 19 129 80 147 141 9 29 12 162 12 477 l0 436 281 0 280 0 -3
-482z"/>
</g>
</svg>
